<svg class="svgMail" width="236" height="232" viewBox="0 0 236 232" fill="none" xmlns="http://www.w3.org/2000/svg">
    <circle cx="116" cy="116" r="116" fill="#1D1B1B"/>
    <path class="svgTxt" d="M59.0335 116.856C59.0335 118.328 58.8095 119.648 58.3615 120.816C57.9295 121.984 57.2975 122.984 56.4655 123.816C55.6495 124.632 54.6415 125.264 53.4415 125.712C52.2575 126.144 50.9215 126.36 49.4335 126.36C47.9935 126.36 46.6735 126.144 45.4735 125.712C44.2895 125.264 43.2735 124.624 42.4255 123.792C41.5775 122.944 40.9135 121.912 40.4335 120.696C39.9695 119.48 39.7375 118.104 39.7375 116.568C39.7375 115.032 39.9695 113.656 40.4335 112.44C40.9135 111.224 41.5775 110.2 42.4255 109.368C43.2735 108.536 44.2895 107.904 45.4735 107.472C46.6735 107.024 47.9935 106.8 49.4335 106.8C50.6495 106.8 51.7775 106.952 52.8175 107.256C53.8735 107.56 54.8015 108.008 55.6015 108.6C56.4175 109.176 57.0975 109.888 57.6415 110.736C58.1855 111.584 58.5775 112.544 58.8175 113.616H54.5695C54.2175 112.448 53.5935 111.56 52.6975 110.952C51.8175 110.344 50.7295 110.04 49.4335 110.04C48.6335 110.04 47.8975 110.192 47.2255 110.496C46.5695 110.784 45.9935 111.208 45.4975 111.768C45.0015 112.312 44.6175 112.992 44.3455 113.808C44.0735 114.624 43.9375 115.544 43.9375 116.568C43.9375 117.608 44.0735 118.536 44.3455 119.352C44.6175 120.152 45.0015 120.832 45.4975 121.392C45.9935 121.952 46.5695 122.384 47.2255 122.688C47.8975 122.976 48.6335 123.12 49.4335 123.12C50.2975 123.12 51.0495 123.008 51.6895 122.784C52.3455 122.56 52.8975 122.248 53.3455 121.848C53.7935 121.432 54.1375 120.944 54.3775 120.384C54.6335 119.824 54.7935 119.216 54.8575 118.56H48.9535V115.44H59.0335V116.856ZM74.6886 121.848C74.5926 122.504 74.3526 123.112 73.9686 123.672C73.5846 124.216 73.1046 124.688 72.5286 125.088C71.9526 125.488 71.2966 125.8 70.5606 126.024C69.8246 126.248 69.0406 126.36 68.2086 126.36C67.1206 126.36 66.1206 126.208 65.2086 125.904C64.3126 125.6 63.5366 125.16 62.8806 124.584C62.2406 124.008 61.7366 123.296 61.3686 122.448C61.0166 121.6 60.8406 120.632 60.8406 119.544C60.8406 118.488 61.0086 117.536 61.3446 116.688C61.6966 115.84 62.1846 115.12 62.8086 114.528C63.4326 113.936 64.1766 113.48 65.0406 113.16C65.9206 112.84 66.8886 112.68 67.9446 112.68C68.9686 112.68 69.9046 112.84 70.7526 113.16C71.6006 113.48 72.3286 113.944 72.9366 114.552C73.5606 115.16 74.0406 115.912 74.3766 116.808C74.7126 117.688 74.8806 118.696 74.8806 119.832V120.624H64.7766C64.8246 121.312 65.1286 121.904 65.6886 122.4C66.2486 122.88 67.0246 123.12 68.0166 123.12C68.6726 123.12 69.2646 123.024 69.7926 122.832C70.3366 122.64 70.7286 122.312 70.9686 121.848H74.6886ZM70.8726 118.464C70.7926 117.792 70.4966 117.2 69.9846 116.688C69.4726 116.176 68.7686 115.92 67.8726 115.92C66.9766 115.92 66.2566 116.176 65.7126 116.688C65.1686 117.2 64.8566 117.792 64.7766 118.464H70.8726ZM78.7484 126V116.28H75.4844V113.04H78.7484V108.12H82.8284V113.04H86.0924V116.28H82.8284V126H78.7484ZM93.8791 113.04H98.0071V126H93.8791V113.04ZM93.8791 106.104H98.0071V110.28H93.8791V106.104ZM100.893 126V113.04H104.829V115.2C105.101 114.48 105.629 113.88 106.413 113.4C107.213 112.92 108.149 112.68 109.221 112.68C109.989 112.68 110.701 112.792 111.357 113.016C112.013 113.224 112.581 113.544 113.061 113.976C113.557 114.392 113.941 114.912 114.213 115.536C114.485 116.144 114.621 116.848 114.621 117.648V126H110.541V118.824C110.541 117.944 110.277 117.256 109.749 116.76C109.237 116.264 108.565 116.016 107.733 116.016C107.093 116.016 106.517 116.168 106.005 116.472C105.493 116.776 105.149 117.152 104.973 117.6V126H100.893ZM125.323 126V116.28H122.059V113.04H125.323V108.12H129.403V113.04H132.667V116.28H129.403V126H125.323ZM137.354 119.52C137.354 120.048 137.426 120.544 137.57 121.008C137.714 121.456 137.922 121.848 138.194 122.184C138.482 122.52 138.826 122.784 139.226 122.976C139.642 123.152 140.114 123.24 140.642 123.24C141.17 123.24 141.634 123.152 142.034 122.976C142.45 122.784 142.794 122.52 143.066 122.184C143.354 121.848 143.57 121.456 143.714 121.008C143.858 120.544 143.93 120.048 143.93 119.52C143.93 118.992 143.858 118.504 143.714 118.056C143.57 117.592 143.354 117.192 143.066 116.856C142.794 116.52 142.45 116.264 142.034 116.088C141.634 115.896 141.17 115.8 140.642 115.8C140.114 115.8 139.642 115.896 139.226 116.088C138.826 116.264 138.482 116.52 138.194 116.856C137.922 117.192 137.714 117.592 137.57 118.056C137.426 118.504 137.354 118.992 137.354 119.52ZM133.274 119.52C133.274 118.496 133.45 117.568 133.802 116.736C134.154 115.888 134.65 115.168 135.29 114.576C135.946 113.968 136.722 113.504 137.618 113.184C138.53 112.848 139.538 112.68 140.642 112.68C141.746 112.68 142.746 112.848 143.642 113.184C144.554 113.504 145.33 113.968 145.97 114.576C146.626 115.168 147.13 115.888 147.482 116.736C147.834 117.568 148.01 118.496 148.01 119.52C148.01 120.544 147.834 121.48 147.482 122.328C147.13 123.16 146.626 123.88 145.97 124.488C145.33 125.08 144.554 125.544 143.642 125.88C142.746 126.2 141.746 126.36 140.642 126.36C139.538 126.36 138.53 126.2 137.618 125.88C136.722 125.544 135.946 125.08 135.29 124.488C134.65 123.88 134.154 123.16 133.802 122.328C133.45 121.48 133.274 120.544 133.274 119.52ZM156.82 126.36C155.684 126.36 154.692 126.232 153.844 125.976C153.012 125.704 152.324 125.328 151.78 124.848C151.236 124.352 150.828 123.768 150.556 123.096C150.3 122.408 150.172 121.64 150.172 120.792V113.04H154.252V120.504C154.252 121.352 154.484 121.984 154.948 122.4C155.412 122.8 156.036 123 156.82 123C157.604 123 158.228 122.8 158.692 122.4C159.156 121.984 159.388 121.352 159.388 120.504V113.04H163.468V120.792C163.468 121.64 163.332 122.408 163.06 123.096C162.804 123.768 162.404 124.352 161.86 124.848C161.316 125.328 160.62 125.704 159.772 125.976C158.94 126.232 157.956 126.36 156.82 126.36ZM175.992 118.272C175.864 117.488 175.536 116.88 175.008 116.448C174.48 116.016 173.808 115.8 172.992 115.8C172.464 115.8 171.992 115.896 171.576 116.088C171.176 116.264 170.832 116.52 170.544 116.856C170.272 117.192 170.064 117.592 169.92 118.056C169.776 118.504 169.704 118.992 169.704 119.52C169.704 120.048 169.776 120.544 169.92 121.008C170.064 121.456 170.272 121.848 170.544 122.184C170.832 122.52 171.176 122.784 171.576 122.976C171.992 123.152 172.464 123.24 172.992 123.24C173.904 123.24 174.616 123.008 175.128 122.544C175.656 122.064 175.984 121.472 176.112 120.768H180.24C180.144 121.584 179.896 122.336 179.496 123.024C179.112 123.712 178.608 124.304 177.984 124.8C177.36 125.28 176.624 125.664 175.776 125.952C174.944 126.224 174.016 126.36 172.992 126.36C171.888 126.36 170.88 126.2 169.968 125.88C169.072 125.544 168.296 125.08 167.64 124.488C167 123.88 166.504 123.16 166.152 122.328C165.8 121.48 165.624 120.544 165.624 119.52C165.624 118.496 165.8 117.568 166.152 116.736C166.504 115.888 167 115.168 167.64 114.576C168.296 113.968 169.072 113.504 169.968 113.184C170.88 112.848 171.888 112.68 172.992 112.68C173.952 112.68 174.832 112.808 175.632 113.064C176.448 113.32 177.16 113.688 177.768 114.168C178.392 114.648 178.904 115.24 179.304 115.944C179.704 116.632 179.984 117.408 180.144 118.272H175.992ZM182.405 126V106.104H186.485V115.176C186.613 114.824 186.813 114.496 187.085 114.192C187.373 113.872 187.709 113.608 188.093 113.4C188.493 113.176 188.933 113 189.413 112.872C189.909 112.744 190.421 112.68 190.949 112.68C191.717 112.68 192.413 112.8 193.037 113.04C193.677 113.264 194.221 113.592 194.669 114.024C195.133 114.44 195.493 114.96 195.749 115.584C196.005 116.192 196.133 116.88 196.133 117.648V126H192.053V118.704C192.053 117.808 191.773 117.136 191.213 116.688C190.669 116.24 189.981 116.016 189.149 116.016C188.509 116.016 187.949 116.16 187.469 116.448C186.989 116.72 186.661 117.08 186.485 117.528V126H182.405Z" fill="white"/>
    <path class="svgPath" d="M222.681 214.551L184.925 203.266L207.937 178.007L222.681 214.551Z" fill="#1D1B1B"/>
</svg>
