<svg width="822" height="2303" viewBox="0 0 822 2303" fill="none" xmlns="http://www.w3.org/2000/svg">
    <path id='path' d="M18 18C18 67.9082 52.4999 163.437 263 201.186C402.068 226.125 548.612 231.108 613.5 235.671C690.5 241.085 825.5 252.456 800 444.136C775.5 575.713 554.782 628.361 385.5 653.5C277 669.612 55.5456 740.178 48.1316 899.289C44.6299 974.439 98.7078 1051.2 287 1105C357 1125 576.5 1159.74 716.5 1245C794.5 1292.5 838 1386.5 813 1485.5C763.193 1682.74 461.65 1623.4 392.5 1693C316.5 1769.5 379.363 1867.62 401.5 1919C428 1980.5 481 2041 441 2145.5C416 2224 406 2244 406 2301" stroke="#EC4D36" stroke-width="3" stroke-linecap="round"/>
    <line x1="387.071" y1="2271.13" x2="405.457" y2="2299.93" stroke="#EC4D36" stroke-width="3" stroke-linecap="round"/>
    <line x1="428.245" y1="2272.78" x2="406.107" y2="2300.75" stroke="#EC4D36" stroke-width="3" stroke-linecap="round"/>
    <circle id='fire-should-be-here' cx="18" cy="18" r="18" fill="#EC4636"/>
</svg>
